<svg width="99" height="71" viewBox="0 0 99 71" fill="none" xmlns="http://www.w3.org/2000/svg">
<g clip-path="url(#clip0)">
<path d="M86.8464 34.5836H85.9651V69.1566H86.8464V34.5836Z" fill="#3F3D56"/>
<path d="M94.9795 38.9895C95.0356 51.0788 86.4719 60.9186 86.4719 60.9186C86.4719 60.9186 77.8172 51.1576 77.7611 39.0683C77.705 26.979 86.2687 17.1392 86.2687 17.1392C86.2687 17.1392 94.9234 26.9002 94.9795 38.9895Z" fill="#3F3D56"/>
<path d="M69.2258 50.8507H68.7726V68.6324H69.2258V50.8507Z" fill="#3F3D56"/>
<path d="M73.4088 53.1168C73.4377 59.3346 69.0331 64.3954 69.0331 64.3954C69.0331 64.3954 64.5819 59.3751 64.553 53.1573C64.5241 46.9395 68.9287 41.8786 68.9287 41.8786C68.9287 41.8786 73.38 46.8989 73.4088 53.1168Z" fill="#3F3D56"/>
<path d="M78.1596 71C84.9417 71 90.4397 70.163 90.4397 69.1304C90.4397 68.0979 84.9417 67.2609 78.1596 67.2609C71.3775 67.2609 65.8795 68.0979 65.8795 69.1304C65.8795 70.163 71.3775 71 78.1596 71Z" fill="#3F3D56"/>
<path d="M79.1725 25.5578C78.1321 23.8119 76.0737 23.7305 76.0737 23.7305C76.0737 23.7305 74.068 23.4757 72.7814 26.1349C71.5821 28.6135 69.9269 31.0066 72.5149 31.5868L72.9823 30.1417L73.2718 31.6944C73.6403 31.7207 74.01 31.727 74.3791 31.7132C77.1506 31.6243 79.7901 31.7392 79.7051 30.7514C79.5921 29.4383 80.1736 27.2378 79.1725 25.5578Z" fill="#2F2E41"/>
<path d="M75.4258 28.8459C75.4258 28.8459 76.7703 30.7155 75.9636 32.2289C75.1569 33.7424 77.846 35.3449 77.846 35.3449L79.8179 31.0716C79.8179 31.0716 77.4874 29.5582 78.1149 28.1337L75.4258 28.8459Z" fill="#FBBEBE"/>
<path d="M76.3221 29.6472C77.6092 29.6472 78.6526 28.6109 78.6526 27.3325C78.6526 26.0541 77.6092 25.0178 76.3221 25.0178C75.035 25.0178 73.9916 26.0541 73.9916 27.3325C73.9916 28.6109 75.035 29.6472 76.3221 29.6472Z" fill="#FBBEBE"/>
<path d="M68.2567 30.0083L70.2043 27.5125C70.2043 27.5125 70.8901 24.8965 71.8833 25.0291C72.8765 25.1617 71.491 28.1664 71.491 28.1664L69.5558 30.9289L68.2567 30.0083Z" fill="#FBBEBE"/>
<path d="M78.1149 63.2102L78.7423 66.5042L80.0869 66.8603L79.7283 62.9431L78.1149 63.2102Z" fill="#FBBEBE"/>
<path d="M91.6499 59.6491L94.07 62.9431L95.056 63.3882L95.8628 62.0528L93.4426 58.9369L91.6499 59.6491Z" fill="#FBBEBE"/>
<path d="M77.577 33.9204L76.0818 31.9655C76.0818 31.9655 73.1849 32.496 72.916 32.7631C72.6471 33.0302 73.6331 37.9266 73.6331 37.9266C73.6331 37.9266 73.8123 39.262 74.6191 39.9743L75.4258 40.5084L82.0588 39.173L82.3083 36.2417C82.3991 35.1741 82.2644 34.0993 81.9127 33.0864C81.561 32.0734 81.0002 31.1446 80.2661 30.3594L79.112 30.5161L77.577 33.9204Z" fill="#575A89"/>
<path d="M73.2745 32.9412L72.8263 32.7631L70.7647 32.5851C70.7647 32.5851 70.0476 32.407 70.2269 32.0509C70.4061 31.6948 70.5854 31.6058 70.2269 31.5167C69.8683 31.4277 69.7787 31.3387 69.8683 31.0716C69.958 30.8045 70.4958 30.2704 70.4958 30.2704L68.972 29.024C68.972 29.024 68.8895 29.0819 68.7562 29.1891C67.9996 29.7975 65.6057 31.9925 67.3585 34.1875C69.4201 36.7693 71.8403 38.2827 73.8123 37.7486L73.2745 32.9412Z" fill="#575A89"/>
<path d="M75.2465 40.0633V41.3097C75.2465 41.3097 74.4398 42.8231 74.7087 44.2475C74.9776 45.672 75.0672 46.3842 75.0672 46.3842C75.0965 47.5956 75.308 48.7959 75.6947 49.9452C76.3221 51.7258 74.2605 63.3882 76.8599 63.5663C79.4594 63.7443 80.8936 63.9224 81.7003 63.0321C82.507 62.1419 80.3558 46.8293 80.3558 46.8293C80.3558 46.8293 87.7059 62.0528 89.2297 61.4297C90.7535 60.8065 94.6079 59.382 94.1597 58.5808C93.7115 57.7796 82.4174 39.9743 82.4174 39.9743L82.0588 39.173L75.2465 40.0633Z" fill="#2F2E41"/>
<path d="M79.549 65.881C79.549 65.881 78.1148 65.7919 78.1148 66.2371C78.1148 66.6822 77.3977 68.1957 77.3977 68.1957C77.3977 68.1957 76.8599 69.9762 78.2941 69.7981C79.7283 69.6201 80.6246 68.0176 80.6246 68.0176L80.2661 66.3261L79.549 65.881Z" fill="#2F2E41"/>
<path d="M94.5182 62.765C94.5182 62.765 93.2633 61.9638 93.3529 62.498C93.4426 63.0321 93.5322 64.4565 94.1597 64.5456C94.7871 64.6346 96.6695 65.1688 96.7591 65.3468C96.8487 65.5249 99 66.2371 99 65.0797C99 63.9224 97.6555 63.0321 97.6555 63.0321L96.1316 61.8748C96.1316 61.8748 95.1457 61.7857 94.9664 62.4089C94.7871 63.0321 94.5182 62.765 94.5182 62.765Z" fill="#2F2E41"/>
<path d="M76.3257 25.2175C77.1477 25.2175 77.814 24.5557 77.814 23.7393C77.814 22.9229 77.1477 22.2611 76.3257 22.2611C75.5037 22.2611 74.8374 22.9229 74.8374 23.7393C74.8374 24.5557 75.5037 25.2175 76.3257 25.2175Z" fill="#2F2E41"/>
<path d="M74.6807 23.3503C74.6807 22.9852 74.8168 22.6331 75.0626 22.3617C75.3085 22.0903 75.6468 21.9189 76.0123 21.8805C75.9603 21.875 75.908 21.8722 75.8557 21.8721C75.4609 21.8721 75.0824 22.0279 74.8033 22.3051C74.5242 22.5823 74.3674 22.9583 74.3674 23.3503C74.3674 23.7424 74.5242 24.1183 74.8033 24.3955C75.0824 24.6728 75.4609 24.8285 75.8557 24.8285C75.908 24.8284 75.9603 24.8257 76.0123 24.8202C75.6468 24.7817 75.3085 24.6103 75.0626 24.3389C74.8168 24.0675 74.6807 23.7154 74.6807 23.3503Z" fill="#2F2E41"/>
<path d="M78.7125 25.3896L76.679 24.3316L73.8707 24.7644L73.2897 27.3131L74.736 27.2578L75.1401 26.3215V27.2424L75.8075 27.2169L76.1948 25.7262L76.4369 27.3131L78.8094 27.265L78.7125 25.3896Z" fill="#2F2E41"/>
<path d="M78.5908 40.2695L75.4547 40.3537C75.4547 40.3537 72.7787 40.8709 72.9288 39.7982C73.079 38.7254 75.6896 39.1006 75.6896 39.1006L78.5472 38.6676L78.5908 40.2695Z" fill="#FBBEBE"/>
<path d="M81.072 30.2085C81.2297 30.1848 81.3906 30.2177 81.526 30.3014C81.6613 30.3851 81.7621 30.5141 81.8103 30.665C82.4242 32.5866 84.3157 39.0169 82.4364 39.8991C80.223 40.9382 78.6077 40.8925 78.6077 40.8925L77.7431 38.7783L78.5302 38.0447L79.3704 32.6786L79.7731 30.4039L81.072 30.2085Z" fill="#575A89"/>
<path opacity="0.4" d="M80.4902 33.7869L80.1317 37.348L76.9944 38.6834L80.4902 37.8821V33.7869Z" fill="black"/>
<path d="M63.5711 22.0307C64.5815 22.2967 65.4558 22.9274 66.0228 23.7997L66.316 24.2506L66.3308 24.2693L71.4745 25.7642C71.5688 25.7916 71.6485 25.8546 71.6964 25.9398C71.7444 26.025 71.7568 26.1254 71.7309 26.2196L71.3316 27.6738C71.3186 27.7212 71.2963 27.7655 71.2659 27.8043C71.2356 27.8431 71.1979 27.8755 71.1549 27.8997C71.1119 27.9239 71.0645 27.9395 71.0154 27.9455C70.9663 27.9514 70.9165 27.9477 70.8689 27.9345L65.7239 26.5061L65.7238 26.5063L65.2071 26.7003C64.2556 27.0576 63.2119 27.0928 62.2382 26.8005L63.5711 22.0307Z" fill="#3F3D56"/>
<path d="M68.988 26.2482C69.0367 26.0829 68.8231 25.8753 68.511 25.7845C68.1988 25.6938 67.9062 25.7543 67.8575 25.9197C67.8088 26.085 68.0224 26.2926 68.3345 26.3834C68.6467 26.4741 68.9393 26.4136 68.988 26.2482Z" fill="#575A89"/>
<path d="M68.7252 26.4007C68.8445 26.4007 68.9412 26.3047 68.9412 26.1862C68.9412 26.0678 68.8445 25.9718 68.7252 25.9718C68.606 25.9718 68.5093 26.0678 68.5093 26.1862C68.5093 26.3047 68.606 26.4007 68.7252 26.4007Z" fill="#3F3D56"/>
<path d="M64.001 24.7853C64.43 23.4715 64.2928 22.2503 63.6946 22.0576C63.0964 21.865 62.2637 22.7738 61.8348 24.0876C61.4059 25.4014 61.5431 26.6227 62.1413 26.8153C62.7395 27.008 63.5721 26.0991 64.001 24.7853Z" fill="#3BB273"/>
<path opacity="0.4" d="M63.8412 24.7388C64.2545 23.4729 64.1421 22.2931 63.5982 22.0364C63.6309 22.0405 63.6632 22.0476 63.6946 22.0576C64.2928 22.2502 64.43 23.4715 64.0011 24.7853C63.5721 26.0991 62.7395 27.008 62.1413 26.8153C62.1196 26.8083 62.0984 26.7998 62.0778 26.79C62.6662 26.8645 63.4348 25.9834 63.8412 24.7388Z" fill="black"/>
<path d="M63.6386 22.0354L51.9647 13.0415C49.9003 11.4396 47.9194 9.73443 46.0294 7.93264C42.7017 4.7822 38.1842 2.26337 32.9246 0.922314C20.146 -2.33585 10.0227 3.44127 5.41837 11.9241C-1.61756 24.8867 -7.00966 45.9215 24.1876 34.7247C31.0104 32.2759 37.9166 32.0156 43.1533 30.7258L62.1148 26.8428L63.6386 22.0354Z" fill="#3BB273"/>
<path d="M28.591 6.9009C28.9375 6.9009 29.2185 6.62189 29.2185 6.27771C29.2185 5.93354 28.9375 5.65453 28.591 5.65453C28.2445 5.65453 27.9636 5.93354 27.9636 6.27771C27.9636 6.62189 28.2445 6.9009 28.591 6.9009Z" fill="#F2F2F2"/>
<path d="M40.7797 7.71816H40.6164V7.55595H40.5845V7.71816H40.4212V7.74985H40.5845V7.91206H40.6164V7.74985H40.7797V7.71816Z" fill="#F2F2F2"/>
<path d="M57.1831 21.2502H57.0198V21.088H56.9879V21.2502H56.8246V21.2819H56.9879V21.4441H57.0198V21.2819H57.1831V21.2502Z" fill="#F2F2F2"/>
<path d="M56.0178 25.4344H55.8545V25.2722H55.8226V25.4344H55.6593V25.4661H55.8226V25.6283H55.8545V25.4661H56.0178V25.4344Z" fill="#F2F2F2"/>
<path d="M5.9114 28.9955H5.74808V28.8333H5.71617V28.9955H5.55286V29.0272H5.71617V29.1894H5.74808V29.0272H5.9114V28.9955Z" fill="#F2F2F2"/>
<path d="M13.0823 9.58772H12.919V9.42551H12.8871V9.58772H12.7238V9.61941H12.8871V9.78162H12.919V9.61941H13.0823V9.58772Z" fill="#F2F2F2"/>
<path d="M40.959 26.1466H40.7957V25.9844H40.7638V26.1466H40.6005V26.1783H40.7638V26.3405H40.7957V26.1783H40.959V26.1466Z" fill="#F2F2F2"/>
<path d="M23.8386 3.89002H23.6753V3.72781H23.6434V3.89002H23.48V3.92171H23.6434V4.08392H23.6753V3.92171H23.8386V3.89002Z" fill="#F2F2F2"/>
<path d="M23.9014 16.7079L23.6979 16.739C23.7615 17.1432 23.8117 17.5563 23.8485 17.9649L24.0537 17.9471C24.017 17.5332 23.9659 17.1165 23.9014 16.7079Z" fill="#E6E6E6"/>
<path d="M23.3447 14.2739L23.1475 14.3335C23.2667 14.7253 23.3733 15.1268 23.4639 15.5265L23.6656 15.4811C23.5732 15.0769 23.4648 14.671 23.3447 14.2739Z" fill="#E6E6E6"/>
<path d="M22.4564 11.9396L22.269 12.0251C22.4411 12.3981 22.6025 12.7809 22.7486 13.1637L22.9413 13.0916C22.7934 12.7044 22.6312 12.3162 22.4564 11.9396Z" fill="#E6E6E6"/>
<path d="M21.2553 9.75134L21.0814 9.86084C21.3028 10.2063 21.5153 10.5642 21.7125 10.9229L21.8935 10.825C21.6945 10.4618 21.4794 10.1003 21.2553 9.75134Z" fill="#E6E6E6"/>
<path d="M19.762 7.74557L19.6051 7.87822C19.8722 8.18982 20.1322 8.51565 20.3778 8.84505L20.5427 8.72309C20.2953 8.39013 20.0327 8.06073 19.762 7.74557Z" fill="#E6E6E6"/>
<path d="M18.0069 5.95971L17.8698 6.11194C18.1781 6.38525 18.4802 6.67281 18.7679 6.9657L18.9158 6.82237C18.6245 6.52591 18.3188 6.23569 18.0069 5.95971Z" fill="#E6E6E6"/>
<path d="M16.0241 4.42667L15.9085 4.59582C16.2509 4.82462 16.5897 5.06855 16.9151 5.3205L17.0424 5.15935C16.7125 4.90474 16.3701 4.65814 16.0241 4.42667Z" fill="#E6E6E6"/>
<path d="M14.2198 3.36191V3.59338C14.434 3.70466 14.6465 3.82129 14.8544 3.94058L14.9575 3.76342C14.7155 3.62453 14.4696 3.4907 14.2198 3.36191Z" fill="#E6E6E6"/>
<path d="M23.9152 19.2278L24.1213 19.2241C24.1251 19.4308 24.1253 19.6385 24.1221 19.8416L23.9161 19.8384C23.9192 19.6376 23.9189 19.4322 23.9152 19.2278Z" fill="#E6E6E6"/>
<path d="M11.8005 34.2461L11.597 34.2773C11.6606 34.6814 11.7108 35.0945 11.7476 35.5032L11.9528 35.4854C11.9161 35.0714 11.865 34.6547 11.8005 34.2461Z" fill="#E6E6E6"/>
<path d="M11.2438 31.8121L11.0466 31.8718C11.1658 32.2635 11.2725 32.665 11.363 33.0647L11.5647 33.0193C11.4724 32.6151 11.364 32.2092 11.2438 31.8121Z" fill="#E6E6E6"/>
<path d="M10.3556 29.4778L10.1682 29.5633C10.3403 29.9363 10.5017 30.3191 10.6478 30.702L10.8405 30.6298C10.6926 30.2426 10.5303 29.8544 10.3556 29.4778Z" fill="#E6E6E6"/>
<path d="M9.15442 27.2896L8.98053 27.3991C9.20193 27.7445 9.41437 28.1024 9.61157 28.4612L9.79263 28.3632C9.59364 28 9.37851 27.6386 9.15442 27.2896Z" fill="#E6E6E6"/>
<path d="M7.66113 25.2838L7.50427 25.4165C7.77139 25.728 8.03133 26.0539 8.27693 26.3833L8.44186 26.2613C8.19446 25.9284 7.93183 25.599 7.66113 25.2838Z" fill="#E6E6E6"/>
<path d="M5.90606 23.4979L5.76892 23.6502C6.07727 23.9235 6.37934 24.211 6.66707 24.5039L6.81497 24.3606C6.52366 24.0641 6.218 23.7739 5.90606 23.4979Z" fill="#E6E6E6"/>
<path d="M3.92331 21.9649L3.80768 22.134C4.15008 22.3628 4.48891 22.6068 4.81429 22.8587L4.94157 22.6976C4.61171 22.443 4.2693 22.1964 3.92331 21.9649Z" fill="#E6E6E6"/>
<path d="M2.1189 20.9001V21.1316C2.33313 21.2429 2.54556 21.3595 2.75352 21.4788L2.8566 21.3017C2.61458 21.1628 2.36868 21.0289 2.1189 20.9001Z" fill="#E6E6E6"/>
<path d="M11.8144 36.7661L12.0204 36.7624C12.0242 36.969 12.0245 37.1767 12.0213 37.3798L11.8153 37.3766C11.8184 37.1758 11.8181 36.9704 11.8144 36.7661Z" fill="#E6E6E6"/>
<path d="M53.2123 25.4325L53.0088 25.4636C53.0724 25.8678 53.1226 26.2809 53.1594 26.6895L53.3646 26.6717C53.3279 26.2578 53.2768 25.8411 53.2123 25.4325Z" fill="#E6E6E6"/>
<path d="M52.6556 22.9985L52.4584 23.0581C52.5777 23.4499 52.6843 23.8514 52.7748 24.2511L52.9765 24.2057C52.8842 23.8015 52.7757 23.3955 52.6556 22.9985Z" fill="#E6E6E6"/>
<path d="M51.7674 20.6642L51.58 20.7497C51.7521 21.1227 51.9135 21.5055 52.0596 21.8883L52.2523 21.8162C52.1044 21.4289 51.9421 21.0408 51.7674 20.6642Z" fill="#E6E6E6"/>
<path d="M50.5662 18.4759L50.3923 18.5854C50.6137 18.9309 50.8262 19.2888 51.0234 19.6475L51.2044 19.5496C51.0054 19.1864 50.7903 18.8249 50.5662 18.4759Z" fill="#E6E6E6"/>
<path d="M49.0729 16.4702L48.916 16.6028C49.1831 16.9144 49.4431 17.2403 49.6887 17.5697L49.8536 17.4477C49.6062 17.1147 49.3436 16.7853 49.0729 16.4702Z" fill="#E6E6E6"/>
<path d="M47.3178 14.6843L47.1807 14.8365C47.489 15.1099 47.7911 15.3974 48.0788 15.6903L48.2267 15.547C47.9354 15.2505 47.6297 14.9603 47.3178 14.6843Z" fill="#E6E6E6"/>
<path d="M45.335 13.1513L45.2194 13.3204C45.5618 13.5492 45.9006 13.7931 46.226 14.0451L46.3533 13.884C46.0235 13.6293 45.681 13.3827 45.335 13.1513Z" fill="#E6E6E6"/>
<path d="M43.5307 12.0865V12.318C43.7449 12.4293 43.9574 12.5459 44.1653 12.6652L44.2684 12.488C44.0264 12.3491 43.7805 12.2153 43.5307 12.0865Z" fill="#E6E6E6"/>
<path d="M53.2261 27.9524L53.4322 27.9487C53.436 28.1554 53.4363 28.3631 53.433 28.5662L53.227 28.563C53.2301 28.3622 53.2299 28.1568 53.2261 27.9524Z" fill="#E6E6E6"/>
<path d="M13.3822 17.796H13.2303V17.645H13.2006V17.796H13.0486V17.8253H13.2006V17.9763H13.2303V17.8253H13.3822V17.796Z" fill="#F2F2F2"/>
<path d="M11.6306 26.9084H11.4787V26.7575H11.449V26.9084H11.297V26.9379H11.449V27.0888H11.4787V26.9379H11.6306V26.9084Z" fill="#F2F2F2"/>
<path d="M6.49116 34.8948H6.33913V34.7439H6.30946V34.8948H6.15753V34.9242H6.30946V35.0752H6.33913V34.9242H6.49116V34.8948Z" fill="#F2F2F2"/>
<path d="M20.7882 24.7657C19.3188 22.5962 18.6808 19.9756 18.9899 17.3791C19.2989 14.7825 20.5347 12.382 22.473 10.6127C24.4113 8.84343 26.9237 7.82263 29.5548 7.73542C32.1859 7.64821 34.7613 8.50035 36.8141 10.1373C38.8668 11.7743 40.2609 14.0877 40.7437 16.658C41.2264 19.2283 40.7657 21.8853 39.4451 24.1472C38.1246 26.4091 36.0317 28.1261 33.5459 28.9868C31.0601 29.8476 28.346 29.795 25.8958 28.8387C25.737 29.4019 25.44 29.9171 25.0316 30.3382C24.6231 30.7594 24.1158 31.0734 23.5552 31.2521C22.9945 31.4308 22.398 31.4687 21.8191 31.3622C21.2401 31.2558 20.6967 31.0085 20.2376 30.6424C19.7785 30.2762 19.4179 29.8028 19.1883 29.2643C18.9586 28.7258 18.8669 28.1392 18.9214 27.5569C18.976 26.9746 19.1751 26.4149 19.5009 25.9278C19.8267 25.4406 20.269 25.0414 20.7882 24.7657Z" fill="#ECF9F2"/>
<path d="M29.8602 12.4136C32.3838 12.4136 34.12 13.8038 34.12 15.8023C34.12 17.1257 33.474 18.0414 32.229 18.77C31.0581 19.445 30.661 19.9396 30.661 20.7952C30.661 20.8645 30.6473 20.9332 30.6206 20.9972C30.5938 21.0613 30.5547 21.1195 30.5053 21.1685C30.4559 21.2176 30.3973 21.2565 30.3328 21.283C30.2683 21.3095 30.1992 21.3232 30.1294 21.3232H28.8393C28.7015 21.3232 28.5691 21.2701 28.47 21.175C28.3708 21.0799 28.3128 20.9503 28.308 20.8136L28.3057 20.7484C28.1913 19.3715 28.6758 18.516 29.8938 17.8075C31.0312 17.1324 31.509 16.7046 31.509 15.8758C31.509 15.047 30.7014 14.4388 29.6987 14.4388C28.9366 14.4388 28.3334 14.8072 28.0568 15.4088C27.9595 15.6124 27.8056 15.7841 27.6132 15.9036C27.4208 16.0231 27.198 16.0854 26.9711 16.083C26.097 16.083 25.5195 15.1598 25.9283 14.3924C26.575 13.1784 27.9394 12.4136 29.8602 12.4136ZM28.0903 23.8697C28.0903 23.1011 28.7364 22.4929 29.5304 22.4929C30.3313 22.4929 30.9773 23.0944 30.9773 23.8697C30.9773 24.6451 30.3313 25.2466 29.5304 25.2466C28.7296 25.2466 28.0903 24.6451 28.0903 23.8697Z" fill="#3BB273"/>
</g>
<defs>
<clipPath id="clip0">
<rect width="99" height="71" fill="white"/>
</clipPath>
</defs>
</svg>
